<svg width="30" height="30" viewBox="0 0 30 30" fill="none" xmlns="http://www.w3.org/2000/svg">
<path d="M24.668 13.3008C24.668 13.1719 24.5625 13.0664 24.4336 13.0664H22.6758C22.5469 13.0664 22.4414 13.1719 22.4414 13.3008C22.4414 17.4111 19.1104 20.7422 15 20.7422C10.8896 20.7422 7.55859 17.4111 7.55859 13.3008C7.55859 13.1719 7.45313 13.0664 7.32422 13.0664H5.56641C5.4375 13.0664 5.33203 13.1719 5.33203 13.3008C5.33203 18.2432 9.04102 22.3213 13.8281 22.8984V25.8984H9.57129C9.16992 25.8984 8.84766 26.3174 8.84766 26.8359V27.8906C8.84766 28.0195 8.92969 28.125 9.0293 28.125H20.9707C21.0703 28.125 21.1523 28.0195 21.1523 27.8906V26.8359C21.1523 26.3174 20.8301 25.8984 20.4287 25.8984H16.0547V22.9131C20.8975 22.3857 24.668 18.2842 24.668 13.3008ZM15 18.2812C17.751 18.2812 19.9805 16.0781 19.9805 13.3594V6.79688C19.9805 4.07812 17.751 1.875 15 1.875C12.249 1.875 10.0195 4.07812 10.0195 6.79688V13.3594C10.0195 16.0781 12.249 18.2812 15 18.2812ZM12.2461 6.79688C12.2461 5.31445 13.4736 4.10156 15 4.10156C16.5264 4.10156 17.7539 5.31445 17.7539 6.79688V13.3594C17.7539 14.8418 16.5264 16.0547 15 16.0547C13.4736 16.0547 12.2461 14.8418 12.2461 13.3594V6.79688Z" fill="#F04040"/>
<line x1="4.15496" y1="26.2958" x2="24.155" y2="2.2958" stroke="#F04040" stroke-width="2.2"/>
</svg>
